<svg xmlns="http://www.w3.org/2000/svg" width="5384.4419" height="804.02698" viewBox="0 0 5384.4419 804.02699"><defs><clipPath id="a" clipPathUnits="userSpaceOnUse"><path d="M0 2500h5000V0H0Z"/></clipPath></defs><g clip-path="url(#a)" transform="matrix(1.33333 0 0 -1.33333 -641.112 2129.482)"><path d="M0 0v-395.747h-43.949v230.953h-249.489v-174.742c0-73.423 59.521-132.944 132.945-132.944h331.231c41.301 0 74.782 33.48 74.782 74.781V66.472H66.472C29.761 66.472 0 36.712 0 0" style="fill:#0dcc5a;fill-opacity:1;fill-rule:nonzero;stroke:none" transform="translate(774.272 1530.64)"/><path d="M0 0c-44.259 0-80.137 35.879-80.137 80.138 0 44.258 35.878 80.136 80.137 80.136s80.138-35.878 80.138-80.136C80.138 35.879 44.259 0 0 0m-.042 228.651c-82.022 0-144.319-65.653-144.319-147.674 0-82.023 62.297-149.354 144.319-149.354 82.022 0 148.514 66.492 148.514 148.515 0 82.021-66.492 148.513-148.514 148.513" style="fill:#000;fill-opacity:1;fill-rule:nonzero;stroke:none" transform="translate(1884.066 1179.283)"/><path d="M0 0v35.216h-68.412v-289.289H.112v147.533c0 26.271 6.509 85.1 72.93 81.22l.021.134v64.454C41.297 36.955 17.742 23.601 0 0" style="fill:#000;fill-opacity:1;fill-rule:nonzero;stroke:none" transform="translate(4132.386 1368.805)"/><path d="M0 0c-44.014 0-79.694 35.68-79.694 79.694 0 44.013 35.68 79.693 79.694 79.693s79.694-35.68 79.694-79.693C79.694 35.68 44.014 0 0 0m0 228.207c-82.022 0-148.514-66.492-148.514-148.513C-148.514-2.329-82.022-68.821 0-68.821S148.514-2.329 148.514 79.694c0 82.021-66.492 148.513-148.514 148.513" style="fill:#000;fill-opacity:1;fill-rule:nonzero;stroke:none" transform="translate(3205.96 1179.796)"/><path d="M0 0c-46.035 0-83.356 37.321-83.356 83.357 0 46.035 37.321 83.355 83.356 83.355 46.036 0 83.356-37.32 83.356-83.355C83.356 37.321 46.036 0 0 0m151.879 227.366h.009H83.255v-26.017c-23.047 19.317-49.739 29.873-85.277 29.873-82.014 0-150.046-66.486-150.046-148.499 0-82.015 67.391-148.501 149.404-148.501 43.801 0 72.165 19.44 85.919 37.699v-33.844l68.575.022.065 289.267z" style="fill:#000;fill-opacity:1;fill-rule:nonzero;stroke:none" transform="translate(3856.904 1176.655)"/><path d="M0 0c-46.036 0-83.356 37.321-83.356 83.357 0 46.035 37.32 83.355 83.356 83.355 46.036 0 83.355-37.32 83.355-83.355C83.355 37.321 46.036 0 0 0m151.888 227.366H83.255v-26.017c-23.047 19.317-49.739 29.873-85.277 29.873-82.014 0-150.046-66.486-150.046-148.499 0-82.015 67.391-148.501 149.404-148.501 43.801 0 72.165 19.441 85.919 37.699v-33.844l68.575.022.065 289.267z" style="fill:#000;fill-opacity:1;fill-rule:nonzero;stroke:none" transform="translate(4367.27 1176.655)"/><path d="M0 0c-44.259 0-80.137 35.879-80.137 80.138 0 44.258 35.878 80.136 80.137 80.136s80.137-35.878 80.137-80.136C80.137 35.879 44.259 0 0 0m-.042 228.651c-82.022 0-148.514-66.492-148.514-148.513 0-82.023 66.492-148.515 148.514-148.515S148.472-1.885 148.472 80.138c0 82.021-66.492 148.513-148.514 148.513" style="fill:#000;fill-opacity:1;fill-rule:nonzero;stroke:none" transform="translate(1561.186 1179.283)"/><path d="M0 0v163.682c0 25.661-11.947 61.944-56.316 64.536-66.168 3.864-72.651-54.741-72.651-80.911V0h-68.555v289.226h68.443V253.44c19.497 25.939 45.935 39.596 82.758 39.596 0 0 114.876 3.29 114.876-119.823V0Z" style="fill:#000;fill-opacity:1;fill-rule:nonzero;stroke:none" transform="translate(2271.969 1114.75)"/><path d="M0 0v163.682c0 25.661-11.947 61.944-56.316 64.536-66.169 3.864-72.652-54.741-72.652-80.911V0h-68.554v289.226h68.442V253.44c19.498 25.939 45.935 39.596 82.758 39.596 0 0 114.877 3.29 114.877-119.823V0Z" style="fill:#000;fill-opacity:1;fill-rule:nonzero;stroke:none" transform="translate(3593.905 1114.75)"/><path d="M0 0h-75.402S-53.79-101.456 64.123-101.456c92.48 0 141.445 54.3 141.445 143.059l-.013 266.871h-68.418l.01-24.943c-20.425 17.126-43.817 27.12-74.065 28.638-68.894 3.458-131.809-39.848-148.484-106.782C-109.028 110.558-36.72 25.822 54.225 25.822c42.382 0 69.793 18.865 83.019 36.524 0 0 16.055-86.131-48.182-103.542C54.076-50.679 14.32-38.486 0 0m137.219 169.708c0-43.899-35.588-79.486-79.486-79.486h-.001c-43.898 0-79.485 35.587-79.485 79.486v.001c0 43.898 35.587 79.485 79.485 79.485h.001c43.898 0 79.486-35.587 79.486-79.485z" style="fill:#000;fill-opacity:1;fill-rule:nonzero;stroke:none" transform="translate(2472.356 1095.547)"/><path d="M0 0h-75.402S-53.79-101.456 64.123-101.456c92.48 0 141.445 54.3 141.445 143.059l-.012 266.871h-68.419l.01-24.943c-20.425 17.126-43.817 27.12-74.066 28.638-68.893 3.458-131.808-39.848-148.484-106.782C-109.028 110.558-36.72 25.822 54.225 25.822c42.382 0 69.793 18.865 83.019 36.524 0 0 16.055-86.131-48.182-103.542C54.076-50.679 14.32-38.486 0 0m137.219 169.708c0-43.899-35.588-79.486-79.486-79.486h-.001c-43.898 0-79.485 35.587-79.485 79.486v.001c0 43.898 35.587 79.485 79.485 79.485h.001c43.898 0 79.486-35.587 79.486-79.485z" style="fill:#000;fill-opacity:1;fill-rule:nonzero;stroke:none" transform="translate(2809.755 1095.547)"/><path d="M0 0v-265.178c0-50.804-41.185-91.989-91.989-91.989h-36.512v-68.606h38.415c87.643 0 158.691 71.049 158.691 158.691V0Z" style="fill:#000;fill-opacity:1;fill-rule:nonzero;stroke:none" transform="translate(1302.116 1540.522)"/></g></svg>